<mxfile host="app.diagrams.net" modified="2022-03-02T12:22:07.133Z" agent="5.0 (Macintosh; Intel Mac OS X 10_15_7) AppleWebKit/537.36 (KHTML, like Gecko) Chrome/96.0.4664.110 Safari/537.36" etag="zuwbI8r69g3nQHFgX36F" version="16.2.7" type="github">
  <diagram id="ETrBmPHCrEfRLiC-9b6Y" name="Page-1">
    <mxGraphModel dx="531" dy="659" grid="1" gridSize="10" guides="1" tooltips="1" connect="1" arrows="1" fold="1" page="1" pageScale="1" pageWidth="827" pageHeight="1169" math="0" shadow="0">
      <root>
        <mxCell id="0" />
        <mxCell id="1" parent="0" />
        <mxCell id="PXRdh9ONx9AMMr0RH5Pq-1" value="&lt;font style=&quot;font-size: 20px&quot;&gt;Query&lt;/font&gt;" style="rounded=0;whiteSpace=wrap;html=1;fillColor=#e1d5e7;strokeColor=#9673a6;" vertex="1" parent="1">
          <mxGeometry x="170" y="225" width="120" height="60" as="geometry" />
        </mxCell>
        <mxCell id="PXRdh9ONx9AMMr0RH5Pq-41" value="" style="edgeStyle=orthogonalEdgeStyle;rounded=0;orthogonalLoop=1;jettySize=auto;html=1;fontSize=20;" edge="1" parent="1" source="PXRdh9ONx9AMMr0RH5Pq-2" target="PXRdh9ONx9AMMr0RH5Pq-9">
          <mxGeometry relative="1" as="geometry" />
        </mxCell>
        <mxCell id="PXRdh9ONx9AMMr0RH5Pq-2" value="Key3" style="rounded=0;whiteSpace=wrap;html=1;fontSize=20;fillColor=#ffe6cc;strokeColor=#d79b00;" vertex="1" parent="1">
          <mxGeometry x="630" y="120" width="100" height="50" as="geometry" />
        </mxCell>
        <mxCell id="PXRdh9ONx9AMMr0RH5Pq-39" value="" style="edgeStyle=orthogonalEdgeStyle;rounded=0;orthogonalLoop=1;jettySize=auto;html=1;fontSize=20;" edge="1" parent="1" source="PXRdh9ONx9AMMr0RH5Pq-3" target="PXRdh9ONx9AMMr0RH5Pq-6">
          <mxGeometry relative="1" as="geometry" />
        </mxCell>
        <mxCell id="PXRdh9ONx9AMMr0RH5Pq-3" value="Key1" style="rounded=0;whiteSpace=wrap;html=1;fontSize=20;fillColor=#ffe6cc;strokeColor=#d79b00;" vertex="1" parent="1">
          <mxGeometry x="364" y="120" width="100" height="50" as="geometry" />
        </mxCell>
        <mxCell id="PXRdh9ONx9AMMr0RH5Pq-40" value="" style="edgeStyle=orthogonalEdgeStyle;rounded=0;orthogonalLoop=1;jettySize=auto;html=1;fontSize=20;" edge="1" parent="1" source="PXRdh9ONx9AMMr0RH5Pq-4" target="PXRdh9ONx9AMMr0RH5Pq-8">
          <mxGeometry relative="1" as="geometry" />
        </mxCell>
        <mxCell id="PXRdh9ONx9AMMr0RH5Pq-4" value="Key2" style="rounded=0;whiteSpace=wrap;html=1;fontSize=20;fillColor=#ffe6cc;strokeColor=#d79b00;" vertex="1" parent="1">
          <mxGeometry x="500" y="120" width="100" height="50" as="geometry" />
        </mxCell>
        <mxCell id="PXRdh9ONx9AMMr0RH5Pq-42" value="" style="edgeStyle=orthogonalEdgeStyle;rounded=0;orthogonalLoop=1;jettySize=auto;html=1;fontSize=20;" edge="1" parent="1" source="PXRdh9ONx9AMMr0RH5Pq-5" target="PXRdh9ONx9AMMr0RH5Pq-7">
          <mxGeometry relative="1" as="geometry" />
        </mxCell>
        <mxCell id="PXRdh9ONx9AMMr0RH5Pq-5" value="Key4" style="rounded=0;whiteSpace=wrap;html=1;fontSize=20;fillColor=#ffe6cc;strokeColor=#d79b00;" vertex="1" parent="1">
          <mxGeometry x="760" y="120" width="100" height="50" as="geometry" />
        </mxCell>
        <mxCell id="PXRdh9ONx9AMMr0RH5Pq-43" value="" style="edgeStyle=orthogonalEdgeStyle;rounded=0;orthogonalLoop=1;jettySize=auto;html=1;fontSize=20;" edge="1" parent="1" source="PXRdh9ONx9AMMr0RH5Pq-6" target="PXRdh9ONx9AMMr0RH5Pq-11">
          <mxGeometry relative="1" as="geometry" />
        </mxCell>
        <mxCell id="PXRdh9ONx9AMMr0RH5Pq-6" value="F(Q,K)" style="ellipse;whiteSpace=wrap;html=1;fontSize=20;fillColor=#f5f5f5;fontColor=#333333;strokeColor=#666666;" vertex="1" parent="1">
          <mxGeometry x="361" y="230" width="106" height="50" as="geometry" />
        </mxCell>
        <mxCell id="PXRdh9ONx9AMMr0RH5Pq-46" value="" style="edgeStyle=orthogonalEdgeStyle;rounded=0;orthogonalLoop=1;jettySize=auto;html=1;fontSize=20;" edge="1" parent="1" source="PXRdh9ONx9AMMr0RH5Pq-7" target="PXRdh9ONx9AMMr0RH5Pq-13">
          <mxGeometry relative="1" as="geometry" />
        </mxCell>
        <mxCell id="PXRdh9ONx9AMMr0RH5Pq-7" value="F(Q,K)" style="ellipse;whiteSpace=wrap;html=1;fontSize=20;fillColor=#f5f5f5;fontColor=#333333;strokeColor=#666666;" vertex="1" parent="1">
          <mxGeometry x="757" y="230" width="106" height="50" as="geometry" />
        </mxCell>
        <mxCell id="PXRdh9ONx9AMMr0RH5Pq-44" value="" style="edgeStyle=orthogonalEdgeStyle;rounded=0;orthogonalLoop=1;jettySize=auto;html=1;fontSize=20;" edge="1" parent="1" source="PXRdh9ONx9AMMr0RH5Pq-8" target="PXRdh9ONx9AMMr0RH5Pq-12">
          <mxGeometry relative="1" as="geometry" />
        </mxCell>
        <mxCell id="PXRdh9ONx9AMMr0RH5Pq-8" value="F(Q,K)" style="ellipse;whiteSpace=wrap;html=1;fontSize=20;fillColor=#f5f5f5;fontColor=#333333;strokeColor=#666666;" vertex="1" parent="1">
          <mxGeometry x="497" y="230" width="106" height="50" as="geometry" />
        </mxCell>
        <mxCell id="PXRdh9ONx9AMMr0RH5Pq-45" value="" style="edgeStyle=orthogonalEdgeStyle;rounded=0;orthogonalLoop=1;jettySize=auto;html=1;fontSize=20;" edge="1" parent="1" source="PXRdh9ONx9AMMr0RH5Pq-9" target="PXRdh9ONx9AMMr0RH5Pq-10">
          <mxGeometry relative="1" as="geometry" />
        </mxCell>
        <mxCell id="PXRdh9ONx9AMMr0RH5Pq-9" value="F(Q,K)" style="ellipse;whiteSpace=wrap;html=1;fontSize=20;fillColor=#f5f5f5;fontColor=#333333;strokeColor=#666666;" vertex="1" parent="1">
          <mxGeometry x="627" y="230" width="106" height="50" as="geometry" />
        </mxCell>
        <mxCell id="PXRdh9ONx9AMMr0RH5Pq-10" value="s3" style="rounded=0;whiteSpace=wrap;html=1;fontSize=20;fillColor=#d5e8d4;strokeColor=#82b366;" vertex="1" parent="1">
          <mxGeometry x="630" y="320" width="100" height="50" as="geometry" />
        </mxCell>
        <mxCell id="PXRdh9ONx9AMMr0RH5Pq-11" value="s1" style="rounded=0;whiteSpace=wrap;html=1;fontSize=20;fillColor=#d5e8d4;strokeColor=#82b366;" vertex="1" parent="1">
          <mxGeometry x="364" y="320" width="100" height="50" as="geometry" />
        </mxCell>
        <mxCell id="PXRdh9ONx9AMMr0RH5Pq-12" value="s2" style="rounded=0;whiteSpace=wrap;html=1;fontSize=20;fillColor=#d5e8d4;strokeColor=#82b366;" vertex="1" parent="1">
          <mxGeometry x="500" y="320" width="100" height="50" as="geometry" />
        </mxCell>
        <mxCell id="PXRdh9ONx9AMMr0RH5Pq-13" value="s4" style="rounded=0;whiteSpace=wrap;html=1;fontSize=20;fillColor=#d5e8d4;strokeColor=#82b366;" vertex="1" parent="1">
          <mxGeometry x="760" y="320" width="100" height="50" as="geometry" />
        </mxCell>
        <mxCell id="PXRdh9ONx9AMMr0RH5Pq-14" value="类SoftMax()归一化" style="rounded=0;whiteSpace=wrap;html=1;fontSize=20;fillColor=#dae8fc;strokeColor=#6c8ebf;" vertex="1" parent="1">
          <mxGeometry x="360" y="420" width="500" height="50" as="geometry" />
        </mxCell>
        <mxCell id="PXRdh9ONx9AMMr0RH5Pq-15" value="a3" style="rounded=0;whiteSpace=wrap;html=1;fontSize=20;fillColor=#d5e8d4;strokeColor=#82b366;" vertex="1" parent="1">
          <mxGeometry x="626" y="522" width="100" height="50" as="geometry" />
        </mxCell>
        <mxCell id="PXRdh9ONx9AMMr0RH5Pq-16" value="a1" style="rounded=0;whiteSpace=wrap;html=1;fontSize=20;fillColor=#d5e8d4;strokeColor=#82b366;" vertex="1" parent="1">
          <mxGeometry x="360" y="522" width="100" height="50" as="geometry" />
        </mxCell>
        <mxCell id="PXRdh9ONx9AMMr0RH5Pq-17" value="a2" style="rounded=0;whiteSpace=wrap;html=1;fontSize=20;fillColor=#d5e8d4;strokeColor=#82b366;" vertex="1" parent="1">
          <mxGeometry x="496" y="522" width="100" height="50" as="geometry" />
        </mxCell>
        <mxCell id="PXRdh9ONx9AMMr0RH5Pq-18" value="a4" style="rounded=0;whiteSpace=wrap;html=1;fontSize=20;fillColor=#d5e8d4;strokeColor=#82b366;" vertex="1" parent="1">
          <mxGeometry x="756" y="522" width="100" height="50" as="geometry" />
        </mxCell>
        <mxCell id="PXRdh9ONx9AMMr0RH5Pq-71" value="" style="edgeStyle=orthogonalEdgeStyle;rounded=0;orthogonalLoop=1;jettySize=auto;html=1;fontSize=20;" edge="1" parent="1" source="PXRdh9ONx9AMMr0RH5Pq-19" target="PXRdh9ONx9AMMr0RH5Pq-38">
          <mxGeometry relative="1" as="geometry" />
        </mxCell>
        <mxCell id="PXRdh9ONx9AMMr0RH5Pq-19" value="" style="ellipse;whiteSpace=wrap;html=1;fontSize=20;fillColor=#f5f5f5;fontColor=#333333;strokeColor=#666666;" vertex="1" parent="1">
          <mxGeometry x="359" y="600" width="106" height="50" as="geometry" />
        </mxCell>
        <mxCell id="PXRdh9ONx9AMMr0RH5Pq-20" value="" style="ellipse;whiteSpace=wrap;html=1;fontSize=20;fillColor=#f5f5f5;fontColor=#333333;strokeColor=#666666;" vertex="1" parent="1">
          <mxGeometry x="755" y="600" width="106" height="50" as="geometry" />
        </mxCell>
        <mxCell id="PXRdh9ONx9AMMr0RH5Pq-21" value="" style="ellipse;whiteSpace=wrap;html=1;fontSize=20;fillColor=#f5f5f5;fontColor=#333333;strokeColor=#666666;" vertex="1" parent="1">
          <mxGeometry x="495" y="600" width="106" height="50" as="geometry" />
        </mxCell>
        <mxCell id="PXRdh9ONx9AMMr0RH5Pq-22" value="" style="ellipse;whiteSpace=wrap;html=1;fontSize=20;fillColor=#f5f5f5;fontColor=#333333;strokeColor=#666666;" vertex="1" parent="1">
          <mxGeometry x="625" y="600" width="106" height="50" as="geometry" />
        </mxCell>
        <mxCell id="PXRdh9ONx9AMMr0RH5Pq-23" value="&lt;font style=&quot;font-size: 60px&quot;&gt;*&lt;/font&gt;" style="text;html=1;strokeColor=none;fillColor=none;align=center;verticalAlign=middle;whiteSpace=wrap;rounded=0;fontSize=41;" vertex="1" parent="1">
          <mxGeometry x="382" y="622" width="60" height="30" as="geometry" />
        </mxCell>
        <mxCell id="PXRdh9ONx9AMMr0RH5Pq-25" value="&lt;font style=&quot;font-size: 60px&quot;&gt;*&lt;/font&gt;" style="text;html=1;strokeColor=none;fillColor=none;align=center;verticalAlign=middle;whiteSpace=wrap;rounded=0;fontSize=41;" vertex="1" parent="1">
          <mxGeometry x="780" y="624" width="60" height="30" as="geometry" />
        </mxCell>
        <mxCell id="PXRdh9ONx9AMMr0RH5Pq-26" value="&lt;font style=&quot;font-size: 60px&quot;&gt;*&lt;/font&gt;" style="text;html=1;strokeColor=none;fillColor=none;align=center;verticalAlign=middle;whiteSpace=wrap;rounded=0;fontSize=41;" vertex="1" parent="1">
          <mxGeometry x="650" y="623" width="60" height="30" as="geometry" />
        </mxCell>
        <mxCell id="PXRdh9ONx9AMMr0RH5Pq-27" value="&lt;font style=&quot;font-size: 60px&quot;&gt;*&lt;/font&gt;" style="text;html=1;strokeColor=none;fillColor=none;align=center;verticalAlign=middle;whiteSpace=wrap;rounded=0;fontSize=41;" vertex="1" parent="1">
          <mxGeometry x="518" y="624" width="60" height="30" as="geometry" />
        </mxCell>
        <mxCell id="PXRdh9ONx9AMMr0RH5Pq-30" value="" style="whiteSpace=wrap;html=1;aspect=fixed;fontSize=60;strokeWidth=2;fillColor=#fff2cc;strokeColor=#d6b656;" vertex="1" parent="1">
          <mxGeometry x="374" y="700" width="70" height="70" as="geometry" />
        </mxCell>
        <mxCell id="PXRdh9ONx9AMMr0RH5Pq-31" value="Value1" style="text;html=1;strokeColor=none;fillColor=none;align=center;verticalAlign=middle;whiteSpace=wrap;rounded=0;fontSize=20;" vertex="1" parent="1">
          <mxGeometry x="379" y="720" width="60" height="30" as="geometry" />
        </mxCell>
        <mxCell id="PXRdh9ONx9AMMr0RH5Pq-32" value="" style="whiteSpace=wrap;html=1;aspect=fixed;fontSize=60;strokeWidth=2;fillColor=#fff2cc;strokeColor=#d6b656;" vertex="1" parent="1">
          <mxGeometry x="518" y="700" width="70" height="70" as="geometry" />
        </mxCell>
        <mxCell id="PXRdh9ONx9AMMr0RH5Pq-33" value="" style="whiteSpace=wrap;html=1;aspect=fixed;fontSize=60;strokeWidth=2;fillColor=#fff2cc;strokeColor=#d6b656;" vertex="1" parent="1">
          <mxGeometry x="648" y="700" width="70" height="70" as="geometry" />
        </mxCell>
        <mxCell id="PXRdh9ONx9AMMr0RH5Pq-34" value="" style="whiteSpace=wrap;html=1;aspect=fixed;fontSize=60;strokeWidth=2;fillColor=#fff2cc;strokeColor=#d6b656;" vertex="1" parent="1">
          <mxGeometry x="775" y="700" width="70" height="70" as="geometry" />
        </mxCell>
        <mxCell id="PXRdh9ONx9AMMr0RH5Pq-35" value="Value2" style="text;html=1;strokeColor=none;fillColor=none;align=center;verticalAlign=middle;whiteSpace=wrap;rounded=0;fontSize=20;" vertex="1" parent="1">
          <mxGeometry x="523" y="720" width="60" height="30" as="geometry" />
        </mxCell>
        <mxCell id="PXRdh9ONx9AMMr0RH5Pq-36" value="Value3" style="text;html=1;strokeColor=none;fillColor=none;align=center;verticalAlign=middle;whiteSpace=wrap;rounded=0;fontSize=20;" vertex="1" parent="1">
          <mxGeometry x="654" y="720" width="60" height="30" as="geometry" />
        </mxCell>
        <mxCell id="PXRdh9ONx9AMMr0RH5Pq-37" value="Value4" style="text;html=1;strokeColor=none;fillColor=none;align=center;verticalAlign=middle;whiteSpace=wrap;rounded=0;fontSize=20;" vertex="1" parent="1">
          <mxGeometry x="780" y="720" width="60" height="30" as="geometry" />
        </mxCell>
        <mxCell id="PXRdh9ONx9AMMr0RH5Pq-38" value="Attention Value" style="rounded=0;whiteSpace=wrap;html=1;fontSize=20;strokeWidth=2;fillColor=#f0a30a;strokeColor=#BD7000;fontColor=#000000;" vertex="1" parent="1">
          <mxGeometry x="170" y="595" width="120" height="60" as="geometry" />
        </mxCell>
        <mxCell id="PXRdh9ONx9AMMr0RH5Pq-49" value="" style="endArrow=classic;html=1;rounded=0;fontSize=20;entryX=0.104;entryY=0;entryDx=0;entryDy=0;entryPerimeter=0;" edge="1" parent="1" target="PXRdh9ONx9AMMr0RH5Pq-14">
          <mxGeometry width="50" height="50" relative="1" as="geometry">
            <mxPoint x="412" y="370" as="sourcePoint" />
            <mxPoint x="417" y="420" as="targetPoint" />
          </mxGeometry>
        </mxCell>
        <mxCell id="PXRdh9ONx9AMMr0RH5Pq-51" value="" style="endArrow=classic;html=1;rounded=0;fontSize=20;entryX=0.104;entryY=0;entryDx=0;entryDy=0;entryPerimeter=0;" edge="1" parent="1">
          <mxGeometry width="50" height="50" relative="1" as="geometry">
            <mxPoint x="549.5" y="370" as="sourcePoint" />
            <mxPoint x="549.5" y="420" as="targetPoint" />
          </mxGeometry>
        </mxCell>
        <mxCell id="PXRdh9ONx9AMMr0RH5Pq-52" value="" style="endArrow=classic;html=1;rounded=0;fontSize=20;entryX=0.104;entryY=0;entryDx=0;entryDy=0;entryPerimeter=0;" edge="1" parent="1">
          <mxGeometry width="50" height="50" relative="1" as="geometry">
            <mxPoint x="680" y="370" as="sourcePoint" />
            <mxPoint x="680" y="420" as="targetPoint" />
          </mxGeometry>
        </mxCell>
        <mxCell id="PXRdh9ONx9AMMr0RH5Pq-53" value="" style="endArrow=classic;html=1;rounded=0;fontSize=20;entryX=0.104;entryY=0;entryDx=0;entryDy=0;entryPerimeter=0;" edge="1" parent="1">
          <mxGeometry width="50" height="50" relative="1" as="geometry">
            <mxPoint x="809.5" y="370" as="sourcePoint" />
            <mxPoint x="809.5" y="420" as="targetPoint" />
          </mxGeometry>
        </mxCell>
        <mxCell id="PXRdh9ONx9AMMr0RH5Pq-54" value="" style="endArrow=classic;html=1;rounded=0;fontSize=20;entryX=0.104;entryY=0;entryDx=0;entryDy=0;entryPerimeter=0;" edge="1" parent="1">
          <mxGeometry width="50" height="50" relative="1" as="geometry">
            <mxPoint x="409.5" y="470" as="sourcePoint" />
            <mxPoint x="409.5" y="520" as="targetPoint" />
          </mxGeometry>
        </mxCell>
        <mxCell id="PXRdh9ONx9AMMr0RH5Pq-56" value="" style="endArrow=classic;html=1;rounded=0;fontSize=20;entryX=0.104;entryY=0;entryDx=0;entryDy=0;entryPerimeter=0;" edge="1" parent="1">
          <mxGeometry width="50" height="50" relative="1" as="geometry">
            <mxPoint x="547.5" y="470" as="sourcePoint" />
            <mxPoint x="547.5" y="520" as="targetPoint" />
          </mxGeometry>
        </mxCell>
        <mxCell id="PXRdh9ONx9AMMr0RH5Pq-57" value="" style="endArrow=classic;html=1;rounded=0;fontSize=20;entryX=0.104;entryY=0;entryDx=0;entryDy=0;entryPerimeter=0;" edge="1" parent="1">
          <mxGeometry width="50" height="50" relative="1" as="geometry">
            <mxPoint x="679.5" y="472" as="sourcePoint" />
            <mxPoint x="679.5" y="522" as="targetPoint" />
          </mxGeometry>
        </mxCell>
        <mxCell id="PXRdh9ONx9AMMr0RH5Pq-58" value="" style="endArrow=classic;html=1;rounded=0;fontSize=20;entryX=0.104;entryY=0;entryDx=0;entryDy=0;entryPerimeter=0;" edge="1" parent="1">
          <mxGeometry width="50" height="50" relative="1" as="geometry">
            <mxPoint x="809.5" y="470" as="sourcePoint" />
            <mxPoint x="809.5" y="520" as="targetPoint" />
          </mxGeometry>
        </mxCell>
        <mxCell id="PXRdh9ONx9AMMr0RH5Pq-60" value="" style="endArrow=classic;html=1;rounded=0;fontSize=20;" edge="1" parent="1">
          <mxGeometry width="50" height="50" relative="1" as="geometry">
            <mxPoint x="408.5" y="572" as="sourcePoint" />
            <mxPoint x="409" y="600" as="targetPoint" />
          </mxGeometry>
        </mxCell>
        <mxCell id="PXRdh9ONx9AMMr0RH5Pq-61" value="" style="endArrow=classic;html=1;rounded=0;fontSize=20;" edge="1" parent="1">
          <mxGeometry width="50" height="50" relative="1" as="geometry">
            <mxPoint x="545.5" y="572" as="sourcePoint" />
            <mxPoint x="546" y="600" as="targetPoint" />
          </mxGeometry>
        </mxCell>
        <mxCell id="PXRdh9ONx9AMMr0RH5Pq-64" value="" style="endArrow=classic;html=1;rounded=0;fontSize=20;" edge="1" parent="1">
          <mxGeometry width="50" height="50" relative="1" as="geometry">
            <mxPoint x="677.5" y="572" as="sourcePoint" />
            <mxPoint x="678" y="600" as="targetPoint" />
          </mxGeometry>
        </mxCell>
        <mxCell id="PXRdh9ONx9AMMr0RH5Pq-65" value="" style="endArrow=classic;html=1;rounded=0;fontSize=20;" edge="1" parent="1">
          <mxGeometry width="50" height="50" relative="1" as="geometry">
            <mxPoint x="805.5" y="572" as="sourcePoint" />
            <mxPoint x="806" y="600" as="targetPoint" />
          </mxGeometry>
        </mxCell>
        <mxCell id="PXRdh9ONx9AMMr0RH5Pq-67" value="" style="endArrow=classic;html=1;rounded=0;fontSize=20;" edge="1" parent="1">
          <mxGeometry width="50" height="50" relative="1" as="geometry">
            <mxPoint x="409" y="700" as="sourcePoint" />
            <mxPoint x="409" y="652" as="targetPoint" />
          </mxGeometry>
        </mxCell>
        <mxCell id="PXRdh9ONx9AMMr0RH5Pq-68" value="" style="endArrow=classic;html=1;rounded=0;fontSize=20;" edge="1" parent="1">
          <mxGeometry width="50" height="50" relative="1" as="geometry">
            <mxPoint x="547.5" y="698" as="sourcePoint" />
            <mxPoint x="547.5" y="650" as="targetPoint" />
          </mxGeometry>
        </mxCell>
        <mxCell id="PXRdh9ONx9AMMr0RH5Pq-69" value="" style="endArrow=classic;html=1;rounded=0;fontSize=20;" edge="1" parent="1">
          <mxGeometry width="50" height="50" relative="1" as="geometry">
            <mxPoint x="679.5" y="698" as="sourcePoint" />
            <mxPoint x="679.5" y="650" as="targetPoint" />
          </mxGeometry>
        </mxCell>
        <mxCell id="PXRdh9ONx9AMMr0RH5Pq-70" value="" style="endArrow=classic;html=1;rounded=0;fontSize=20;" edge="1" parent="1">
          <mxGeometry width="50" height="50" relative="1" as="geometry">
            <mxPoint x="807.5" y="702" as="sourcePoint" />
            <mxPoint x="807.5" y="654" as="targetPoint" />
          </mxGeometry>
        </mxCell>
        <mxCell id="PXRdh9ONx9AMMr0RH5Pq-73" value="" style="endArrow=none;html=1;rounded=0;fontSize=20;exitX=1;exitY=0.5;exitDx=0;exitDy=0;entryX=0;entryY=0.5;entryDx=0;entryDy=0;" edge="1" parent="1" source="PXRdh9ONx9AMMr0RH5Pq-1" target="PXRdh9ONx9AMMr0RH5Pq-6">
          <mxGeometry width="50" height="50" relative="1" as="geometry">
            <mxPoint x="340" y="460" as="sourcePoint" />
            <mxPoint x="390" y="410" as="targetPoint" />
          </mxGeometry>
        </mxCell>
        <mxCell id="PXRdh9ONx9AMMr0RH5Pq-74" value="&lt;font style=&quot;font-size: 32px&quot;&gt;+&lt;/font&gt;" style="text;html=1;strokeColor=none;fillColor=none;align=center;verticalAlign=middle;whiteSpace=wrap;rounded=0;fontSize=20;strokeWidth=8;" vertex="1" parent="1">
          <mxGeometry x="450" y="610" width="60" height="30" as="geometry" />
        </mxCell>
        <mxCell id="PXRdh9ONx9AMMr0RH5Pq-76" value="&lt;font style=&quot;font-size: 32px&quot;&gt;+&lt;/font&gt;" style="text;html=1;strokeColor=none;fillColor=none;align=center;verticalAlign=middle;whiteSpace=wrap;rounded=0;fontSize=20;strokeWidth=8;" vertex="1" parent="1">
          <mxGeometry x="714" y="610" width="60" height="30" as="geometry" />
        </mxCell>
        <mxCell id="PXRdh9ONx9AMMr0RH5Pq-77" value="&lt;font style=&quot;font-size: 32px&quot;&gt;+&lt;/font&gt;" style="text;html=1;strokeColor=none;fillColor=none;align=center;verticalAlign=middle;whiteSpace=wrap;rounded=0;fontSize=20;strokeWidth=8;" vertex="1" parent="1">
          <mxGeometry x="583" y="610" width="60" height="30" as="geometry" />
        </mxCell>
        <mxCell id="PXRdh9ONx9AMMr0RH5Pq-78" value="" style="shape=curlyBracket;whiteSpace=wrap;html=1;rounded=1;flipH=1;fontSize=32;strokeWidth=4;dashed=1;strokeColor=#474747;dashPattern=1 1;" vertex="1" parent="1">
          <mxGeometry x="888" y="130" width="30" height="210" as="geometry" />
        </mxCell>
        <mxCell id="PXRdh9ONx9AMMr0RH5Pq-79" value="阶段1" style="text;html=1;strokeColor=none;fillColor=none;align=center;verticalAlign=middle;whiteSpace=wrap;rounded=0;dashed=1;fontSize=32;" vertex="1" parent="1">
          <mxGeometry x="940" y="220" width="100" height="30" as="geometry" />
        </mxCell>
        <mxCell id="PXRdh9ONx9AMMr0RH5Pq-80" value="" style="shape=curlyBracket;whiteSpace=wrap;html=1;rounded=1;flipH=1;fontSize=32;strokeWidth=4;dashed=1;strokeColor=#545454;dashPattern=1 1;" vertex="1" parent="1">
          <mxGeometry x="890" y="350" width="30" height="190" as="geometry" />
        </mxCell>
        <mxCell id="PXRdh9ONx9AMMr0RH5Pq-81" value="阶段2" style="text;html=1;strokeColor=none;fillColor=none;align=center;verticalAlign=middle;whiteSpace=wrap;rounded=0;dashed=1;fontSize=32;" vertex="1" parent="1">
          <mxGeometry x="940" y="430" width="100" height="30" as="geometry" />
        </mxCell>
        <mxCell id="PXRdh9ONx9AMMr0RH5Pq-82" value="" style="shape=curlyBracket;whiteSpace=wrap;html=1;rounded=1;flipH=1;fontSize=32;strokeWidth=4;dashed=1;strokeColor=#545454;dashPattern=1 1;" vertex="1" parent="1">
          <mxGeometry x="890" y="550" width="30" height="190" as="geometry" />
        </mxCell>
        <mxCell id="PXRdh9ONx9AMMr0RH5Pq-83" value="阶段3" style="text;html=1;strokeColor=none;fillColor=none;align=center;verticalAlign=middle;whiteSpace=wrap;rounded=0;dashed=1;fontSize=32;" vertex="1" parent="1">
          <mxGeometry x="940" y="630" width="100" height="30" as="geometry" />
        </mxCell>
      </root>
    </mxGraphModel>
  </diagram>
</mxfile>
